<?xml version="1.0" encoding="UTF-8" standalone="no"?>
<!-- Created with Inkscape (http://www.inkscape.org/) -->

<svg
   width="160mm"
   height="160mm"
   viewBox="0 0 160 160"
   version="1.1"
   id="svg6969"
   xml:space="preserve"
   inkscape:version="1.2.2 (732a01da63, 2022-12-09)"
   sodipodi:docname="1.svg"
   xmlns:inkscape="http://www.inkscape.org/namespaces/inkscape"
   xmlns:sodipodi="http://sodipodi.sourceforge.net/DTD/sodipodi-0.dtd"
   xmlns="http://www.w3.org/2000/svg"
   xmlns:svg="http://www.w3.org/2000/svg"><sodipodi:namedview
     id="namedview6971"
     pagecolor="#ffffff"
     bordercolor="#000000"
     borderopacity="0.25"
     inkscape:showpageshadow="2"
     inkscape:pageopacity="0"
     inkscape:pagecheckerboard="0"
     inkscape:deskcolor="#d1d1d1"
     inkscape:document-units="mm"
     showgrid="false"
     inkscape:zoom="1.0859962"
     inkscape:cx="476.06061"
     inkscape:cy="280.84813"
     inkscape:window-width="1920"
     inkscape:window-height="1017"
     inkscape:window-x="1072"
     inkscape:window-y="450"
     inkscape:window-maximized="1"
     inkscape:current-layer="layer1" /><defs
     id="defs6966"><rect
       x="194.29166"
       y="957.64612"
       width="534.07184"
       height="229.28258"
       id="rect7620" /><rect
       x="276.24408"
       y="709.94727"
       width="370.16705"
       height="232.96584"
       id="rect7510" /></defs><g
     inkscape:label="Camada 1"
     inkscape:groupmode="layer"
     id="layer1"
     style="display:inline"><path
       style="fill:#f0f6fc;stroke:#f0f6fc;stroke-width:0.259928;stroke-opacity:1"
       d="m 18.180646,130.17387 c 2.058241,-4.76917 6.751956,-7.19508 11.43685,-8.75102 7.253829,-2.40901 14.949535,-3.21583 22.093924,-6.06491 3.442236,-1.37268 7.242649,-3.20102 9.232927,-6.49821 4.382135,-7.26032 -3.924923,-17.070288 -6.581391,-23.653498 -5.599386,-13.8755 -9.697675,-30.16757 -3.091075,-44.44778 8.758553,-18.931598 36.275359,-22.271358 51.125339,-8.793378 7.5439,6.846782 10.2703,17.898668 9.59423,27.768158 -0.75016,10.95625 -4.35251,21.57615 -9.01718,31.45135 -2.36926,5.01611 -6.93568,11.151988 -4.18096,16.895358 2.43995,5.08732 8.97872,7.25799 14.00131,8.7648 10.51177,3.15371 22.79938,3.40454 29.37193,13.32913 1.81794,-1.47977 3.12591,-3.77936 4.41878,-5.71843 3.21351,-4.8196 5.91546,-9.93316 8.00867,-15.33578 C 164.65324,83.154362 160.59341,52.533732 143.08956,30.621244 121.55057,3.657224 84.44681,-7.248472 51.971355,4.998814 c -10.42444,3.93134 -19.683087,10.01231 -27.812359,17.58791 -6.476323,6.03515 -11.717317,13.66561 -15.659884,21.550798 -10.452306,20.90449 -11.49748,46.40712 -1.834764,67.841348 2.094139,4.64519 4.521274,9.02264 7.357641,13.25636 1.105453,1.65002 2.355321,4.02291 4.158657,4.93864 z"
       id="path7242" /></g></svg>
